<svg preserveAspectRatio="none" overflow="visible" style="display: block;" width="32" height="32" viewBox="0 0 32 32" fill="none" xmlns="http://www.w3.org/2000/svg">
<g id="icon-dark">
<mask id="mask0_0_428" style="mask-type:alpha" maskUnits="userSpaceOnUse" x="0" y="0" width="32" height="32">
<rect id="Bounding box" width="32" height="32" fill="#D9D9D9"/>
</mask>
<g mask="url(#mask0_0_428)">
<path id="Subtract" d="M23.1493 23.7471C23.1493 24.1027 23.0304 24.4009 22.7929 24.6406C22.5554 24.8802 22.2605 25 21.9081 25H10.0917C9.73937 25 9.44444 24.8802 9.20695 24.6406C8.9694 24.4009 8.8505 24.1027 8.8505 23.7471V22.7969H23.1493V23.7471ZM22.7587 11.3604C23.1111 11.3604 23.406 11.485 23.6435 11.7324C23.8809 11.9798 23.9999 12.2732 23.9999 12.6133V19.3633C23.9999 19.719 23.881 20.0171 23.6435 20.2568C23.406 20.4963 23.111 20.6162 22.7587 20.6162H9.24113C8.88884 20.6162 8.59383 20.4963 8.35636 20.2568C8.11882 20.0171 7.99992 19.719 7.99992 19.3633V12.6133C7.99995 12.2732 8.11896 11.9798 8.35636 11.7324C8.59387 11.485 8.88871 11.3604 9.24113 11.3604H22.7587ZM16.4228 18.5596V19H19.9999V18.5596H16.4228ZM11.9999 14.2998L14.0439 16.3799L12.0194 18.46L12.3144 18.7402L14.6532 16.3799L12.3144 14L11.9999 14.2998ZM21.9081 7C22.2605 7.00004 22.5554 7.11982 22.7929 7.35938C23.0304 7.59907 23.1493 7.89726 23.1493 8.25293V9.18066H8.8505V8.25293C8.8505 7.89726 8.9694 7.59907 9.20695 7.35938C9.44444 7.11982 9.73937 7.00004 10.0917 7H21.9081Z" fill="#080018"/>
</g>
</g>
</svg>
