<svg preserveAspectRatio="none" overflow="visible" style="display: block;" width="24" height="24" viewBox="0 0 24 24" fill="none" xmlns="http://www.w3.org/2000/svg">
<g id="mic">
<mask id="mask0_0_515" style="mask-type:alpha" maskUnits="userSpaceOnUse" x="0" y="0" width="24" height="24">
<rect id="Bounding box" width="24" height="24" fill="#D9D9D9"/>
</mask>
<g mask="url(#mask0_0_515)">
<path id="mic_2" d="M10.7287 12.2018C10.3929 11.8478 10.225 11.4107 10.225 10.8905V4.76925C10.225 4.27992 10.3966 3.86267 10.7397 3.5175C11.0831 3.1725 11.5027 3 11.9985 3C12.4943 3 12.9144 3.1725 13.2587 3.5175C13.6029 3.86267 13.775 4.27992 13.775 4.76925V10.8905C13.775 11.4107 13.6071 11.8478 13.2712 12.2018C12.9352 12.5558 12.5115 12.7327 12 12.7327C11.4885 12.7327 11.0647 12.5558 10.7287 12.2018ZM11.6155 20.5V16.8307C10.041 16.7116 8.7115 16.0853 7.627 14.952C6.54233 13.8187 6 12.4648 6 10.8905H6.76925C6.76925 12.343 7.2785 13.5699 8.297 14.5712C9.31533 15.5724 10.547 16.073 11.992 16.073C13.437 16.073 14.6714 15.5724 15.6953 14.5712C16.7189 13.5699 17.2308 12.343 17.2308 10.8905H18C18 12.4648 17.4577 13.8187 16.373 14.952C15.2885 16.0853 13.959 16.7116 12.3845 16.8307V20.5H11.6155ZM12.7183 11.6547C12.9099 11.4491 13.0057 11.1917 13.0057 10.8825V4.76925C13.0057 4.48592 12.9093 4.24842 12.7165 4.05675C12.5238 3.86508 12.285 3.76925 12 3.76925C11.715 3.76925 11.4762 3.86508 11.2835 4.05675C11.0907 4.24842 10.9942 4.48592 10.9942 4.76925V10.8825C10.9942 11.1917 11.0901 11.4491 11.2817 11.6547C11.4734 11.8606 11.7128 11.9635 12 11.9635C12.2872 11.9635 12.5266 11.8606 12.7183 11.6547Z" fill="#1C1B1F"/>
</g>
</g>
</svg>
