<svg preserveAspectRatio="none" overflow="visible" style="display: block;" width="32" height="32" viewBox="0 0 32 32" fill="none" xmlns="http://www.w3.org/2000/svg">
<g id="icon-dark">
<mask id="mask0_0_343" style="mask-type:alpha" maskUnits="userSpaceOnUse" x="0" y="0" width="32" height="32">
<rect id="Bounding box" width="32" height="32" fill="#D9D9D9"/>
</mask>
<g mask="url(#mask0_0_343)">
<path id="overview" d="M22.2299 22.6781L22.6897 22.2222L21.0115 20.5584V18.0969H20.3678V20.8319L22.2299 22.6781ZM20.7007 24C19.7732 24 18.9877 23.6757 18.3444 23.027C17.701 22.3785 17.3793 21.6074 17.3793 20.7136C17.3793 19.7896 17.701 19.0085 18.3444 18.3704C18.9877 17.7322 19.7732 17.4131 20.7007 17.4131C21.6129 17.4131 22.3908 17.7322 23.0345 18.3704C23.6782 19.0085 24 19.7896 24 20.7136C24 21.6074 23.6782 22.3785 23.0345 23.027C22.3908 23.6757 21.6129 24 20.7007 24ZM11.0805 11.8291H19.0805V11.3276H11.0805V11.8291ZM14.8966 22.0399H9.24138C8.90421 22.0399 8.61303 21.9183 8.36782 21.6752C8.12261 21.4321 8 21.1434 8 20.8091V9.23077C8 8.89649 8.12261 8.60779 8.36782 8.36467C8.61303 8.12156 8.90421 8 9.24138 8H20.9195C21.2567 8 21.5479 8.12156 21.7931 8.36467C22.0383 8.60779 22.1609 8.89649 22.1609 9.23077V14.8604C21.9157 14.8148 21.6705 14.773 21.4253 14.735C21.1801 14.6971 20.9349 14.6781 20.6897 14.6781C20.329 14.6781 19.9697 14.7135 19.6117 14.7845C19.2537 14.8553 18.908 14.9414 18.5747 15.0427V14.7692H11.0805V15.2707H17.954C17.341 15.6049 16.8084 16.0228 16.3563 16.5242C15.9042 17.0256 15.5402 17.5878 15.2644 18.2108H11.0805V18.7123H15.0115C14.9349 19.0161 14.8736 19.3238 14.8276 19.6353C14.7816 19.9468 14.7586 20.2621 14.7586 20.5812C14.7586 20.7635 14.7663 21.0066 14.7816 21.3105C14.7969 21.6144 14.8352 21.8576 14.8966 22.0399Z" fill="#080018"/>
</g>
</g>
</svg>
